<?xml version="1.0" encoding="UTF-8"?>
<svg xmlns="http://www.w3.org/2000/svg" xmlns:xlink="http://www.w3.org/1999/xlink" width="667.250" height="152.250" viewBox="29.375 66.000 667.250 152.250">
<defs>
<g>
<g id="glyph-0-0">
<path d="M 7.609375 0 L 21.578125 0 L 21.578125 -19.109375 L 32.1875 -19.109375 C 46.421875 -19.109375 57.84375 -26.765625 57.84375 -41.5 L 57.84375 -41.6875 C 57.84375 -54.703125 48.6875 -63.703125 33.546875 -63.703125 L 7.609375 -63.703125 Z M 21.578125 -31.578125 L 21.578125 -51.0625 L 32.359375 -51.0625 C 39.34375 -51.0625 43.703125 -47.6875 43.703125 -41.40625 L 43.703125 -41.234375 C 43.703125 -35.765625 39.609375 -31.578125 32.640625 -31.578125 Z M 21.578125 -31.578125 "/>
</g>
<g id="glyph-0-1">
<path d="M 34.09375 1 C 51.125 1 61.921875 -8.46875 61.921875 -27.765625 L 61.921875 -63.703125 L 47.953125 -63.703125 L 47.953125 -27.21875 C 47.953125 -17.109375 42.796875 -11.921875 34.265625 -11.921875 C 25.75 -11.921875 20.578125 -17.296875 20.578125 -27.671875 L 20.578125 -63.703125 L 6.625 -63.703125 L 6.625 -27.296875 C 6.625 -8.5625 17.046875 1 34.09375 1 Z M 34.09375 1 "/>
</g>
<g id="glyph-0-2">
<path d="M 7.609375 0 L 53.21875 0 L 53.21875 -12.734375 L 21.578125 -12.734375 L 21.578125 -63.703125 L 7.609375 -63.703125 Z M 7.609375 0 "/>
</g>
<g id="glyph-0-3">
<path d="M 30.1875 0.90625 C 43.875 0.90625 53.484375 -6.1875 53.484375 -18.84375 L 53.484375 -19.015625 C 53.484375 -30.125 46.234375 -34.765625 33.359375 -38.140625 C 22.390625 -40.953125 19.671875 -42.328125 19.671875 -46.515625 L 19.671875 -46.6875 C 19.671875 -49.78125 22.484375 -52.25 27.828125 -52.25 C 33.1875 -52.25 38.703125 -49.875 44.328125 -45.96875 L 51.578125 -56.515625 C 45.140625 -61.703125 37.265625 -64.625 28.015625 -64.625 C 15.046875 -64.625 5.796875 -56.96875 5.796875 -45.421875 L 5.796875 -45.234375 C 5.796875 -32.578125 14.046875 -29.03125 26.828125 -25.75 C 37.4375 -23.03125 39.609375 -21.203125 39.609375 -17.65625 L 39.609375 -17.46875 C 39.609375 -13.75 36.171875 -11.46875 30.453125 -11.46875 C 23.203125 -11.46875 17.21875 -14.46875 11.515625 -19.203125 L 3.265625 -9.28125 C 10.875 -2.453125 20.578125 0.90625 30.1875 0.90625 Z M 30.1875 0.90625 "/>
</g>
<g id="glyph-0-4">
<path d="M 7.609375 0 L 55.9375 0 L 55.9375 -12.46875 L 21.484375 -12.46875 L 21.484375 -25.84375 L 51.40625 -25.84375 L 51.40625 -38.3125 L 21.484375 -38.3125 L 21.484375 -51.234375 L 55.484375 -51.234375 L 55.484375 -63.703125 L 7.609375 -63.703125 Z M 7.609375 0 "/>
</g>
</g>
<clipPath id="clip-0">
<path clip-rule="nonzero" d="M 43 0 L 775.828125 0 L 775.828125 259.472656 L 43 259.472656 Z M 43 0 "/>
</clipPath>
</defs>
<path fill-rule="nonzero" fill="rgb(100%, 100%, 100%)" fill-opacity="1" d="M 165.980469 138.1875 C 165.980469 174.242188 136.753906 203.46875 100.703125 203.46875 C 64.648438 203.46875 35.421875 174.242188 35.421875 138.1875 C 35.421875 102.136719 64.648438 72.910156 100.703125 72.910156 C 136.753906 72.910156 165.980469 102.136719 165.980469 138.1875 "/>
<path fill-rule="nonzero" fill="rgb(100%, 100%, 100%)" fill-opacity="1" d="M 56.242188 155.59375 C 56.957031 155.953125 57.617188 156.402344 57.578125 157.566406 C 56.882812 157.121094 56.503906 156.515625 56.242188 155.59375 M 55.539062 154.652344 C 55.929688 154.773438 56.175781 155.023438 56.332031 155.433594 C 55.746094 155.570312 55.46875 155.179688 55.539062 154.652344 M 64.074219 171.355469 C 62.328125 166.652344 60.167969 162.5625 57.714844 157.867188 C 60.03125 159.554688 61.164062 162.164062 62.621094 164.6875 C 65.757812 170.164062 67.363281 175.972656 69.101562 181.847656 L 66.402344 157.289062 L 66.183594 150.960938 L 36.675781 150.960938 C 36.984375 152.523438 37.347656 154.0625 37.769531 155.578125 C 37.792969 155.628906 37.808594 155.691406 37.824219 155.742188 C 37.914062 156.074219 38.003906 156.410156 38.101562 156.734375 C 38.210938 157.117188 38.324219 157.492188 38.445312 157.867188 C 38.550781 158.1875 38.648438 158.503906 38.761719 158.824219 C 38.769531 158.847656 38.773438 158.871094 38.785156 158.902344 C 38.96875 159.457031 39.167969 160.011719 39.359375 160.558594 C 39.496094 160.933594 39.640625 161.300781 39.78125 161.667969 C 39.945312 162.121094 40.125 162.5625 40.304688 162.996094 C 40.582031 163.671875 40.875 164.347656 41.175781 165.015625 C 41.199219 165.054688 41.214844 165.097656 41.230469 165.136719 C 41.476562 165.683594 41.730469 166.230469 42 166.773438 C 42.527344 167.851562 43.082031 168.917969 43.667969 169.960938 L 43.667969 169.96875 C 43.863281 170.3125 44.058594 170.664062 44.261719 171.011719 C 46.675781 175.136719 49.527344 178.988281 52.753906 182.476562 C 53.078125 182.820312 53.390625 183.167969 53.722656 183.503906 C 54.023438 183.820312 54.328125 184.132812 54.652344 184.441406 C 55.238281 185.019531 55.832031 185.589844 56.4375 186.160156 C 56.746094 186.445312 57.054688 186.722656 57.367188 186.992188 C 61.390625 190.558594 65.855469 193.632812 70.671875 196.125 C 69.269531 187.511719 67.0625 179.378906 64.074219 171.355469 "/>
<path fill-rule="nonzero" fill="rgb(100%, 100%, 100%)" fill-opacity="1" d="M 164.714844 150.023438 C 163.574219 156.257812 161.550781 162.195312 158.773438 167.671875 C 155.765625 173.585938 151.894531 178.988281 147.308594 183.699219 C 147.292969 183.714844 147.277344 183.730469 147.265625 183.75 C 146.574219 184.449219 145.859375 185.148438 145.140625 185.824219 C 144.773438 186.167969 144.398438 186.503906 144.023438 186.84375 C 143.617188 187.203125 143.210938 187.554688 142.800781 187.910156 C 142.335938 188.304688 141.855469 188.695312 141.375 189.078125 C 140.894531 189.46875 140.414062 189.84375 139.917969 190.21875 C 139.894531 190.242188 139.875 190.257812 139.851562 190.273438 C 139.511719 190.519531 139.175781 190.773438 138.835938 191.015625 C 138.074219 191.578125 137.292969 192.117188 136.496094 192.644531 C 136.234375 192.816406 135.964844 192.988281 135.695312 193.160156 C 135.304688 193.414062 134.90625 193.664062 134.507812 193.902344 C 133.832031 194.316406 133.148438 194.714844 132.460938 195.105469 C 131.648438 195.5625 130.832031 195.996094 130.007812 196.417969 C 129.472656 196.6875 128.933594 196.949219 128.394531 197.207031 C 128.378906 197.210938 128.363281 197.21875 128.355469 197.226562 C 127.816406 197.476562 127.277344 197.722656 126.726562 197.964844 C 126.332031 198.140625 125.933594 198.308594 125.527344 198.472656 C 125.203125 198.609375 124.882812 198.734375 124.558594 198.863281 C 124.207031 199.007812 123.847656 199.148438 123.492188 199.277344 C 123.375 199.320312 123.246094 199.367188 123.117188 199.417969 C 122.730469 199.5625 122.339844 199.703125 121.949219 199.839844 C 121.625 199.941406 121.304688 200.054688 120.972656 200.160156 C 120.253906 200.402344 119.53125 200.625 118.796875 200.828125 C 118.398438 200.949219 118.007812 201.0625 117.605469 201.167969 C 117.304688 201.257812 116.996094 201.332031 116.6875 201.40625 C 116.425781 201.476562 116.164062 201.542969 115.902344 201.601562 C 115.441406 201.722656 114.984375 201.828125 114.519531 201.925781 C 114.496094 201.925781 114.46875 201.933594 114.429688 201.9375 C 114.078125 202.015625 113.722656 202.089844 113.371094 202.164062 C 113.355469 202.164062 113.34375 202.164062 113.328125 202.171875 C 112.585938 202.3125 111.84375 202.449219 111.089844 202.570312 C 110.714844 202.628906 110.332031 202.691406 109.949219 202.742188 C 109.570312 202.800781 109.1875 202.847656 108.804688 202.898438 C 108.398438 202.953125 107.992188 202.996094 107.578125 203.042969 C 107.21875 203.078125 106.851562 203.117188 106.484375 203.148438 C 106.117188 203.175781 105.75 203.207031 105.378906 203.238281 C 105.292969 203.246094 105.195312 203.253906 105.09375 203.261719 C 104.429688 203.304688 103.753906 203.335938 103.078125 203.355469 C 102.792969 203.371094 102.507812 203.378906 102.214844 203.386719 C 101.703125 203.402344 101.1875 203.410156 100.667969 203.410156 L 100.601562 203.410156 C 98.367188 203.410156 96.152344 203.296875 93.96875 203.070312 C 93.421875 203.019531 92.875 202.953125 92.332031 202.882812 C 91.785156 202.816406 91.246094 202.742188 90.703125 202.660156 C 90.300781 202.597656 89.894531 202.53125 89.496094 202.464844 C 88.898438 202.359375 88.296875 202.246094 87.695312 202.125 C 87.09375 202.007812 86.503906 201.878906 85.910156 201.738281 C 83.277344 201.128906 80.710938 200.363281 78.210938 199.457031 C 77.320312 199.125 76.433594 198.78125 75.5625 198.414062 C 75.421875 189.09375 77.222656 180.5625 83.808594 173.734375 L 90.261719 167.035156 C 92.289062 164.925781 94.605469 162.921875 95.53125 159.898438 C 92.617188 162.285156 90.375 164.8125 87.335938 166.691406 C 79.097656 173.253906 73.648438 180.921875 72.628906 191.96875 C 70.527344 181.207031 69.109375 170.472656 68.203125 159.554688 L 67.859375 150.964844 L 97.644531 150.964844 C 99.027344 150.964844 100.300781 150.21875 100.96875 149.011719 L 107.179688 137.824219 L 116.660156 171.808594 C 117.136719 173.480469 118.609375 174.589844 120.320312 174.589844 C 120.417969 174.589844 120.507812 174.582031 120.613281 174.582031 C 122.445312 174.441406 123.875 173.074219 124.109375 171.25 L 129.007812 131.527344 L 130.058594 123.019531 L 130.898438 131.527344 L 132.390625 146.597656 C 132.59375 148.546875 134.222656 150.023438 136.1875 150.023438 Z M 164.714844 150.023438 "/>
<path fill-rule="nonzero" fill="rgb(100%, 100%, 100%)" fill-opacity="1" d="M 90.03125 98.949219 C 89.78125 99.183594 89.265625 99.027344 89.160156 98.851562 C 89.054688 98.679688 89.0625 98.171875 89.292969 97.929688 C 92.632812 94.582031 95.53125 90.988281 98.1875 87.042969 C 98.484375 86.578125 98.761719 86.105469 99.332031 86.136719 C 97.59375 90.457031 93.277344 95.835938 90.03125 98.949219 M 98.53125 92.84375 C 96.332031 96.753906 93.453125 100.160156 89.984375 103.121094 C 89.632812 103.421875 89.265625 103.265625 89.152344 103.113281 C 89.023438 102.957031 88.972656 102.507812 89.234375 102.273438 C 92.625 99.265625 95.550781 95.898438 98.101562 92.160156 C 98.359375 92.03125 98.554688 92.121094 98.574219 92.21875 C 98.605469 92.316406 98.605469 92.707031 98.53125 92.84375 M 97.921875 98.171875 C 95.445312 101.882812 92.332031 105.027344 88.6875 107.765625 C 88.296875 108.058594 87.945312 107.855469 87.75 107.664062 C 87.515625 107.421875 87.6875 107.082031 88.0625 106.785156 C 91.679688 104.03125 94.832031 100.878906 97.625 97.34375 C 97.878906 97.421875 98.019531 97.316406 98.019531 97.398438 C 98.003906 97.554688 98.003906 98.042969 97.921875 98.171875 M 96.371094 104.105469 C 93.554688 107.550781 90.132812 110.363281 86.226562 112.757812 C 85.851562 112.988281 85.40625 112.597656 85.316406 112.410156 C 85.234375 112.230469 85.453125 111.855469 85.753906 111.675781 C 89.429688 109.417969 92.6875 106.746094 95.746094 103.691406 C 95.898438 103.535156 96.257812 103.476562 96.363281 103.566406 C 96.453125 103.640625 96.421875 103.851562 96.371094 104.105469 M 95.070312 108.734375 C 92.160156 112.148438 88.574219 114.78125 84.507812 116.996094 C 84.109375 117.214844 83.644531 116.996094 83.523438 116.847656 C 83.414062 116.703125 83.449219 116.238281 83.71875 116.101562 C 87.679688 114.015625 91.183594 111.375 94.488281 108.351562 C 94.667969 108.203125 94.882812 108.121094 95.050781 108.140625 C 95.167969 108.164062 95.230469 108.546875 95.070312 108.734375 M 92.558594 114.160156 C 89.480469 117.222656 85.957031 119.683594 81.917969 121.609375 C 81.519531 121.804688 81.234375 121.617188 81.125 121.503906 C 80.972656 121.347656 80.972656 120.769531 81.316406 120.613281 C 85.398438 118.691406 89.070312 116.035156 92.640625 113.101562 C 93.082031 113.347656 92.886719 113.828125 92.558594 114.160156 M 85.574219 98.613281 C 85.4375 98.785156 85.21875 98.71875 85.125 98.664062 C 84.988281 98.589844 84.761719 98.191406 84.917969 97.960938 C 87.402344 94.246094 90.15625 90.78125 93.355469 87.644531 C 93.96875 87.042969 94.605469 86.539062 95.5 86.601562 L 90.605469 92.210938 Z M 81.804688 99.476562 C 81.664062 99.785156 81.160156 99.867188 80.957031 99.785156 C 80.742188 99.695312 80.492188 99.265625 80.695312 98.851562 C 82.585938 95.011719 84.875 91.425781 87.816406 88.28125 C 88.328125 87.726562 88.777344 86.992188 89.738281 87.238281 C 86.625 91.164062 83.863281 95.035156 81.804688 99.476562 M 77.460938 103.136719 C 77.386719 103.414062 77.148438 103.527344 77.003906 103.527344 C 76.75 103.527344 76.539062 103.503906 76.222656 103.011719 C 77.46875 98.539062 79.277344 94.382812 81.867188 90.578125 C 82.257812 90.015625 82.730469 89.542969 83.414062 89.648438 C 80.824219 94.042969 78.796875 98.386719 77.460938 103.136719 M 73.742188 106.625 C 73.6875 106.949219 73.34375 107.046875 73.191406 107.054688 C 71.363281 107.136719 74.632812 97.324219 76.449219 93.644531 C 76.734375 93.066406 77.160156 92.394531 77.828125 92.476562 C 75.902344 97.234375 74.4375 101.78125 73.742188 106.625 M 70.214844 110.191406 C 70.191406 110.8125 69.957031 111.128906 69.589844 111.105469 C 69.269531 111.082031 68.945312 110.8125 68.960938 110.332031 C 69.15625 105.675781 69.914062 101.132812 71.617188 96.820312 C 71.789062 96.382812 71.992188 95.964844 72.613281 96.046875 C 71.375 100.640625 70.355469 105.214844 70.214844 110.191406 M 66.820312 114.675781 C 66.851562 115.089844 66.441406 115.292969 66.238281 115.277344 C 66.003906 115.253906 65.636719 115.089844 65.597656 114.675781 C 65.238281 110.046875 65.570312 105.449219 66.746094 100.953125 C 66.882812 100.460938 67.09375 100 67.691406 100.078125 C 66.898438 104.976562 66.410156 109.761719 66.820312 114.675781 M 132.769531 81.394531 C 132.128906 81.035156 131.476562 80.679688 130.824219 80.34375 C 130.488281 80.171875 130.15625 79.996094 129.820312 79.832031 C 128.761719 79.300781 127.6875 78.804688 126.601562 78.332031 C 126.515625 78.292969 126.441406 78.257812 126.359375 78.226562 C 125.660156 77.925781 124.949219 77.632812 124.238281 77.363281 C 123.847656 77.214844 123.457031 77.0625 123.066406 76.921875 C 121.566406 76.375 120.042969 75.878906 118.496094 75.441406 C 117.976562 75.292969 117.460938 75.15625 116.945312 75.023438 C 115.902344 74.753906 114.84375 74.511719 113.785156 74.296875 C 113.253906 74.183594 112.71875 74.085938 112.1875 73.988281 C 111.714844 73.90625 111.242188 73.824219 110.761719 73.746094 C 110.679688 73.734375 110.589844 73.71875 110.5 73.710938 C 110.078125 73.640625 109.652344 73.582031 109.222656 73.53125 C 109.082031 73.507812 108.945312 73.492188 108.800781 73.476562 C 108.546875 73.441406 108.285156 73.410156 108.023438 73.386719 C 107.648438 73.335938 107.273438 73.296875 106.898438 73.265625 C 106.347656 73.214844 105.800781 73.167969 105.253906 73.132812 C 104.71875 73.09375 104.1875 73.066406 103.648438 73.035156 C 103.558594 73.035156 103.460938 73.027344 103.363281 73.027344 C 102.933594 73.003906 102.507812 72.996094 102.082031 72.988281 C 102.035156 72.980469 101.988281 72.980469 101.945312 72.980469 C 101.511719 72.976562 101.082031 72.96875 100.640625 72.96875 C 100.308594 72.96875 99.988281 72.96875 99.648438 72.980469 C 99.386719 72.980469 99.132812 72.988281 98.875 72.988281 C 98.449219 73.003906 98.027344 73.019531 97.609375 73.035156 C 97.53125 73.042969 97.457031 73.042969 97.382812 73.050781 C 97.136719 73.066406 96.894531 73.078125 96.65625 73.09375 C 96.550781 73.09375 96.453125 73.101562 96.355469 73.109375 C 96.257812 73.109375 96.160156 73.125 96.0625 73.132812 C 95.761719 73.148438 95.460938 73.167969 95.15625 73.199219 C 95.070312 73.199219 94.988281 73.207031 94.90625 73.214844 C 94.710938 73.230469 94.515625 73.253906 94.320312 73.273438 C 94.140625 73.28125 93.960938 73.304688 93.789062 73.328125 C 93.714844 73.335938 93.632812 73.335938 93.546875 73.351562 C 93.472656 73.355469 93.398438 73.363281 93.316406 73.371094 C 93.070312 73.394531 92.820312 73.425781 92.566406 73.460938 C 92.316406 73.492188 92.0625 73.53125 91.816406 73.558594 C 91.53125 73.597656 91.253906 73.636719 90.976562 73.679688 C 90.832031 73.695312 90.691406 73.71875 90.554688 73.738281 C 90.066406 73.816406 89.578125 73.898438 89.089844 73.988281 C 87.484375 74.273438 85.902344 74.617188 84.335938 75.023438 C 83.816406 75.15625 83.300781 75.292969 82.78125 75.441406 C 55.441406 83.210938 35.421875 108.359375 35.421875 138.191406 C 35.421875 140.414062 35.535156 142.605469 35.75 144.773438 L 66.085938 144.773438 C 66.214844 137.644531 66.980469 130.953125 68.945312 124.394531 C 67.46875 123.277344 66.933594 121.738281 66.746094 120.011719 C 66.515625 118.554688 66.507812 117.019531 67.59375 115.914062 C 68.285156 116.289062 68.503906 116.890625 68.832031 117.617188 C 68.945312 114.535156 69.890625 111.421875 71.421875 113.257812 C 71.660156 111.054688 73.085938 108.792969 73.636719 109.34375 L 74.21875 109.925781 C 75.144531 107.398438 76.644531 104.089844 77.859375 105.734375 C 79.074219 103.789062 80.449219 101.320312 81.789062 102.355469 C 82.535156 101.261719 83.195312 100.339844 84.445312 99.597656 L 84.890625 100.902344 C 85.664062 100.175781 87.402344 99.671875 87.898438 100.652344 C 88.3125 101.464844 87.171875 102.523438 86.789062 102.996094 C 87.246094 103.011719 87.816406 103.183594 87.800781 103.371094 C 87.71875 104.121094 87.15625 104.675781 86.675781 105.195312 C 87.269531 105.6875 87.296875 106.335938 86.804688 106.820312 C 86.105469 107.511719 85.8125 108.472656 85.300781 109.175781 C 84.761719 109.925781 84.710938 110.414062 84.5 111.292969 C 84.117188 112.832031 82.65625 113.933594 81.671875 115.058594 C 82.21875 117.160156 80.097656 118.878906 78.070312 120.378906 C 78.511719 120.640625 78.859375 120.808594 78.945312 121.085938 C 79.351562 122.375 74.714844 126.300781 70.484375 125.226562 C 68.40625 131.730469 67.820312 138.066406 67.917969 144.773438 L 96.242188 144.773438 L 100.121094 137.78125 L 104.601562 129.726562 C 105.351562 128.378906 106.828125 127.613281 108.367188 127.800781 C 109.914062 127.980469 111.171875 129.0625 111.585938 130.554688 L 111.855469 131.53125 L 119.417969 158.644531 L 122.773438 131.53125 L 123.320312 127.09375 L 123.53125 124.273438 L 126.324219 101.695312 C 126.367188 101.34375 126.457031 101.007812 126.59375 100.699219 C 126.59375 100.691406 126.59375 100.691406 126.601562 100.683594 C 126.953125 98.898438 128.511719 97.601562 130.375 97.628906 C 132.308594 97.652344 133.914062 99.125 134.101562 101.050781 L 137.128906 131.53125 L 138.351562 143.835938 L 165.359375 143.835938 C 165.371094 143.835938 165.375 143.828125 165.382812 143.828125 C 165.457031 143.828125 165.527344 143.828125 165.601562 143.820312 C 165.757812 141.960938 165.855469 140.089844 165.855469 138.191406 C 165.855469 113.84375 152.523438 92.617188 132.769531 81.394531 "/>
<path fill-rule="nonzero" fill="rgb(14.509583%, 25.097656%, 58.824158%)" fill-opacity="1" d="M 90.03125 98.949219 C 89.78125 99.183594 89.265625 99.027344 89.160156 98.851562 C 89.054688 98.679688 89.0625 98.171875 89.292969 97.929688 C 92.632812 94.582031 95.53125 90.988281 98.1875 87.042969 C 98.484375 86.578125 98.761719 86.105469 99.332031 86.136719 C 97.59375 90.457031 93.277344 95.835938 90.03125 98.949219 M 98.53125 92.84375 C 96.332031 96.753906 93.453125 100.160156 89.984375 103.121094 C 89.632812 103.421875 89.265625 103.265625 89.152344 103.113281 C 89.023438 102.957031 88.972656 102.507812 89.234375 102.273438 C 92.625 99.265625 95.550781 95.898438 98.101562 92.160156 C 98.359375 92.03125 98.554688 92.121094 98.574219 92.21875 C 98.605469 92.316406 98.605469 92.707031 98.53125 92.84375 M 97.921875 98.171875 C 95.445312 101.882812 92.332031 105.027344 88.6875 107.765625 C 88.296875 108.058594 87.945312 107.855469 87.75 107.664062 C 87.515625 107.421875 87.6875 107.082031 88.0625 106.785156 C 91.679688 104.03125 94.832031 100.878906 97.625 97.34375 C 97.878906 97.421875 98.019531 97.316406 98.019531 97.398438 C 98.003906 97.554688 98.003906 98.042969 97.921875 98.171875 M 96.371094 104.105469 C 93.554688 107.550781 90.132812 110.363281 86.226562 112.757812 C 85.851562 112.988281 85.40625 112.597656 85.316406 112.410156 C 85.234375 112.230469 85.453125 111.855469 85.753906 111.675781 C 89.429688 109.417969 92.6875 106.746094 95.746094 103.691406 C 95.898438 103.535156 96.257812 103.476562 96.363281 103.566406 C 96.453125 103.640625 96.421875 103.851562 96.371094 104.105469 M 95.070312 108.734375 C 92.160156 112.148438 88.574219 114.78125 84.507812 116.996094 C 84.109375 117.214844 83.644531 116.996094 83.523438 116.847656 C 83.414062 116.703125 83.449219 116.238281 83.71875 116.101562 C 87.679688 114.015625 91.183594 111.375 94.488281 108.351562 C 94.667969 108.203125 94.882812 108.121094 95.050781 108.140625 C 95.167969 108.164062 95.230469 108.546875 95.070312 108.734375 M 92.558594 114.160156 C 89.480469 117.222656 85.957031 119.683594 81.917969 121.609375 C 81.519531 121.804688 81.234375 121.617188 81.125 121.503906 C 80.972656 121.347656 80.972656 120.769531 81.316406 120.613281 C 85.398438 118.691406 89.070312 116.035156 92.640625 113.101562 C 93.082031 113.347656 92.886719 113.828125 92.558594 114.160156 M 85.574219 98.613281 C 85.4375 98.785156 85.21875 98.71875 85.125 98.664062 C 84.988281 98.589844 84.761719 98.191406 84.917969 97.960938 C 87.402344 94.246094 90.15625 90.78125 93.355469 87.644531 C 93.96875 87.042969 94.605469 86.539062 95.5 86.601562 L 90.605469 92.210938 Z M 81.804688 99.476562 C 81.664062 99.785156 81.160156 99.867188 80.957031 99.785156 C 80.742188 99.695312 80.492188 99.265625 80.695312 98.851562 C 82.585938 95.011719 84.875 91.425781 87.816406 88.28125 C 88.328125 87.726562 88.777344 86.992188 89.738281 87.238281 C 86.625 91.164062 83.863281 95.035156 81.804688 99.476562 M 77.460938 103.136719 C 77.386719 103.414062 77.148438 103.527344 77.003906 103.527344 C 76.75 103.527344 76.539062 103.503906 76.222656 103.011719 C 77.46875 98.539062 79.277344 94.382812 81.867188 90.578125 C 82.257812 90.015625 82.730469 89.542969 83.414062 89.648438 C 80.824219 94.042969 78.796875 98.386719 77.460938 103.136719 M 73.742188 106.625 C 73.6875 106.949219 73.34375 107.046875 73.191406 107.054688 C 71.363281 107.136719 74.632812 97.324219 76.449219 93.644531 C 76.734375 93.066406 77.160156 92.394531 77.828125 92.476562 C 75.902344 97.234375 74.4375 101.78125 73.742188 106.625 M 70.214844 110.191406 C 70.191406 110.8125 69.957031 111.128906 69.589844 111.105469 C 69.269531 111.082031 68.945312 110.8125 68.960938 110.332031 C 69.15625 105.675781 69.914062 101.132812 71.617188 96.820312 C 71.789062 96.382812 71.992188 95.964844 72.613281 96.046875 C 71.375 100.640625 70.355469 105.214844 70.214844 110.191406 M 66.820312 114.675781 C 66.851562 115.089844 66.441406 115.292969 66.238281 115.277344 C 66.003906 115.253906 65.636719 115.089844 65.597656 114.675781 C 65.238281 110.046875 65.570312 105.449219 66.746094 100.953125 C 66.882812 100.460938 67.09375 100 67.691406 100.078125 C 66.898438 104.976562 66.410156 109.761719 66.820312 114.675781 M 132.769531 81.394531 C 132.128906 81.035156 131.476562 80.679688 130.824219 80.34375 C 130.488281 80.171875 130.15625 79.996094 129.820312 79.832031 C 128.761719 79.300781 127.6875 78.804688 126.601562 78.332031 C 126.515625 78.292969 126.441406 78.257812 126.359375 78.226562 C 125.660156 77.925781 124.949219 77.632812 124.238281 77.363281 C 123.847656 77.214844 123.457031 77.0625 123.066406 76.921875 C 121.566406 76.367188 120.042969 75.871094 118.496094 75.441406 C 117.976562 75.292969 117.460938 75.15625 116.945312 75.023438 C 115.902344 74.746094 114.851562 74.503906 113.785156 74.296875 C 113.253906 74.183594 112.71875 74.085938 112.1875 73.988281 C 111.714844 73.90625 111.242188 73.824219 110.761719 73.746094 C 110.679688 73.734375 110.589844 73.71875 110.5 73.710938 C 110.078125 73.640625 109.652344 73.582031 109.222656 73.53125 C 109.082031 73.507812 108.945312 73.492188 108.800781 73.476562 C 108.546875 73.441406 108.285156 73.410156 108.023438 73.386719 C 107.648438 73.335938 107.273438 73.296875 106.898438 73.265625 C 106.347656 73.214844 105.800781 73.167969 105.253906 73.132812 C 104.71875 73.09375 104.1875 73.066406 103.648438 73.035156 C 103.558594 73.035156 103.460938 73.027344 103.363281 73.027344 C 102.933594 73.003906 102.507812 72.996094 102.082031 72.988281 C 102.035156 72.980469 101.988281 72.980469 101.945312 72.980469 C 101.511719 72.976562 101.082031 72.96875 100.640625 72.96875 C 100.308594 72.96875 99.988281 72.96875 99.648438 72.980469 C 99.386719 72.980469 99.132812 72.988281 98.875 72.988281 C 98.621094 72.996094 98.367188 73.003906 98.109375 73.011719 C 97.945312 73.019531 97.773438 73.027344 97.609375 73.035156 C 97.53125 73.042969 97.457031 73.042969 97.382812 73.050781 C 97.136719 73.066406 96.894531 73.078125 96.65625 73.09375 C 96.550781 73.09375 96.453125 73.101562 96.355469 73.109375 C 96.257812 73.109375 96.160156 73.125 96.0625 73.132812 C 95.761719 73.148438 95.460938 73.167969 95.15625 73.199219 C 95.070312 73.199219 94.988281 73.207031 94.90625 73.214844 C 94.710938 73.230469 94.515625 73.253906 94.320312 73.273438 C 94.140625 73.28125 93.960938 73.304688 93.789062 73.328125 C 93.714844 73.335938 93.632812 73.335938 93.546875 73.351562 C 93.472656 73.355469 93.398438 73.363281 93.316406 73.371094 C 93.070312 73.394531 92.820312 73.425781 92.566406 73.460938 C 92.316406 73.492188 92.0625 73.53125 91.816406 73.558594 C 91.785156 73.558594 91.761719 73.558594 91.734375 73.566406 C 91.476562 73.605469 91.222656 73.636719 90.976562 73.679688 C 90.832031 73.695312 90.691406 73.71875 90.554688 73.738281 C 90.066406 73.816406 89.578125 73.898438 89.089844 73.988281 C 87.484375 74.265625 85.894531 74.609375 84.335938 75.023438 C 83.816406 75.15625 83.300781 75.292969 82.78125 75.441406 C 55.441406 83.210938 35.421875 108.359375 35.421875 138.191406 C 35.421875 140.414062 35.535156 142.605469 35.75 144.773438 L 66.085938 144.773438 C 66.214844 137.644531 66.980469 130.953125 68.945312 124.394531 C 67.46875 123.277344 66.933594 121.738281 66.746094 120.011719 C 66.515625 118.554688 66.507812 117.019531 67.59375 115.914062 C 68.285156 116.289062 68.503906 116.890625 68.832031 117.617188 C 68.945312 114.535156 69.890625 111.421875 71.421875 113.257812 C 71.660156 111.054688 73.085938 108.792969 73.636719 109.34375 L 74.21875 109.925781 C 75.144531 107.398438 76.644531 104.089844 77.859375 105.734375 C 79.074219 103.789062 80.449219 101.320312 81.789062 102.355469 C 82.535156 101.261719 83.195312 100.339844 84.445312 99.597656 L 84.890625 100.902344 C 85.664062 100.175781 87.402344 99.671875 87.898438 100.652344 C 88.3125 101.464844 87.171875 102.523438 86.789062 102.996094 C 87.246094 103.011719 87.816406 103.183594 87.800781 103.371094 C 87.71875 104.121094 87.15625 104.675781 86.675781 105.195312 C 87.269531 105.6875 87.296875 106.335938 86.804688 106.820312 C 86.105469 107.511719 85.8125 108.472656 85.300781 109.175781 C 84.761719 109.925781 84.710938 110.414062 84.5 111.292969 C 84.117188 112.832031 82.65625 113.933594 81.671875 115.058594 C 82.21875 117.160156 80.097656 118.878906 78.070312 120.378906 C 78.511719 120.640625 78.859375 120.808594 78.945312 121.085938 C 79.351562 122.375 74.714844 126.300781 70.484375 125.226562 C 68.40625 131.730469 67.820312 138.066406 67.917969 144.773438 L 96.242188 144.773438 L 100.121094 137.78125 L 104.601562 129.726562 C 105.351562 128.378906 106.828125 127.613281 108.367188 127.800781 C 109.914062 127.980469 111.171875 129.0625 111.585938 130.554688 L 111.855469 131.53125 L 119.417969 158.644531 L 122.773438 131.53125 L 123.320312 127.09375 L 123.53125 124.273438 L 126.324219 101.695312 C 126.367188 101.34375 126.457031 101.007812 126.59375 100.699219 C 126.59375 100.691406 126.59375 100.691406 126.601562 100.683594 C 126.953125 98.898438 128.511719 97.601562 130.375 97.628906 C 132.308594 97.652344 133.914062 99.125 134.101562 101.050781 L 137.128906 131.53125 L 138.351562 143.835938 L 165.359375 143.835938 C 165.371094 143.835938 165.375 143.828125 165.382812 143.828125 C 165.457031 143.828125 165.527344 143.828125 165.601562 143.820312 C 165.691406 143.820312 165.78125 143.820312 165.871094 143.8125 C 166.015625 142.042969 166.097656 140.25 166.097656 138.433594 C 166.097656 113.949219 152.660156 92.617188 132.769531 81.394531 "/>
<path fill-rule="nonzero" fill="rgb(98.823547%, 78.431702%, 27.842712%)" fill-opacity="1" d="M 56.242188 155.59375 C 56.957031 155.953125 57.617188 156.402344 57.578125 157.566406 C 56.882812 157.121094 56.503906 156.515625 56.242188 155.59375 M 55.539062 154.652344 C 55.929688 154.773438 56.175781 155.023438 56.332031 155.433594 C 55.746094 155.570312 55.46875 155.179688 55.539062 154.652344 M 64.074219 171.355469 C 62.328125 166.652344 60.167969 162.5625 57.714844 157.867188 C 60.03125 159.554688 61.164062 162.164062 62.621094 164.6875 C 65.757812 170.164062 67.363281 175.972656 69.101562 181.847656 L 66.402344 157.289062 L 66.183594 150.960938 L 36.660156 150.960938 C 36.667969 150.976562 36.667969 151 36.667969 151.015625 C 36.90625 152.214844 37.175781 153.402344 37.484375 154.570312 C 37.484375 154.578125 37.484375 154.585938 37.492188 154.59375 C 37.574219 154.925781 37.671875 155.246094 37.769531 155.578125 C 37.792969 155.628906 37.808594 155.691406 37.824219 155.742188 C 37.914062 156.074219 38.003906 156.410156 38.101562 156.734375 C 38.210938 157.117188 38.324219 157.492188 38.445312 157.867188 C 38.550781 158.1875 38.648438 158.503906 38.761719 158.824219 C 38.769531 158.847656 38.773438 158.871094 38.785156 158.902344 C 38.96875 159.457031 39.167969 160.011719 39.359375 160.558594 C 39.496094 160.933594 39.640625 161.300781 39.78125 161.667969 C 39.945312 162.121094 40.125 162.5625 40.304688 162.996094 C 40.582031 163.671875 40.875 164.347656 41.175781 165.015625 C 41.199219 165.054688 41.214844 165.097656 41.230469 165.136719 C 41.476562 165.683594 41.730469 166.230469 42 166.773438 C 42.527344 167.851562 43.082031 168.917969 43.667969 169.960938 L 43.667969 169.96875 C 43.863281 170.3125 44.058594 170.664062 44.261719 171.011719 C 45.558594 173.261719 47 175.421875 48.558594 177.488281 C 48.582031 177.515625 48.605469 177.546875 48.628906 177.578125 C 49.917969 179.28125 51.289062 180.914062 52.753906 182.476562 C 53.078125 182.820312 53.390625 183.167969 53.722656 183.503906 C 54.023438 183.820312 54.328125 184.132812 54.652344 184.441406 C 55.238281 185.019531 55.832031 185.589844 56.4375 186.160156 C 56.746094 186.445312 57.054688 186.722656 57.367188 186.992188 C 61.375 190.574219 65.847656 193.65625 70.671875 196.148438 L 70.671875 196.125 C 69.269531 187.511719 67.0625 179.378906 64.074219 171.355469 M 136.1875 150.023438 C 134.222656 150.023438 132.59375 148.546875 132.394531 146.59375 L 130.898438 131.53125 L 130.058594 123.019531 L 129.007812 131.53125 L 124.109375 171.25 C 123.875 173.074219 122.441406 174.441406 120.613281 174.582031 C 120.507812 174.582031 120.417969 174.589844 120.320312 174.589844 C 118.609375 174.589844 117.140625 173.480469 116.660156 171.804688 L 107.183594 137.824219 L 100.96875 149.011719 C 100.300781 150.21875 99.027344 150.960938 97.644531 150.960938 L 67.859375 150.960938 L 68.203125 159.554688 C 69.109375 170.472656 70.527344 181.207031 72.628906 191.96875 C 73.652344 180.921875 79.097656 173.253906 87.335938 166.691406 C 90.375 164.8125 92.617188 162.285156 95.53125 159.898438 C 94.605469 162.921875 92.289062 164.925781 90.261719 167.035156 L 83.808594 173.734375 C 77.222656 180.5625 75.421875 189.09375 75.5625 198.414062 L 75.5625 198.429688 C 76.433594 198.796875 77.320312 199.140625 78.210938 199.457031 C 80.710938 200.378906 83.277344 201.144531 85.910156 201.738281 C 86.503906 201.878906 87.097656 202.007812 87.695312 202.128906 C 88.296875 202.246094 88.898438 202.359375 89.496094 202.464844 C 89.894531 202.53125 90.300781 202.601562 90.703125 202.660156 C 91.246094 202.742188 91.785156 202.816406 92.332031 202.886719 C 92.875 202.953125 93.421875 203.019531 93.96875 203.074219 C 96.152344 203.296875 98.367188 203.410156 100.601562 203.410156 L 100.667969 203.410156 C 101.1875 203.410156 101.703125 203.402344 102.214844 203.386719 C 102.507812 203.378906 102.792969 203.371094 103.078125 203.359375 C 103.753906 203.335938 104.429688 203.304688 105.097656 203.261719 C 105.195312 203.253906 105.289062 203.246094 105.382812 203.238281 C 105.75 203.207031 106.117188 203.175781 106.484375 203.148438 C 106.851562 203.117188 107.21875 203.078125 107.578125 203.042969 C 107.992188 202.996094 108.398438 202.953125 108.800781 202.898438 C 109.183594 202.847656 109.566406 202.800781 109.949219 202.742188 C 110.332031 202.691406 110.714844 202.628906 111.089844 202.570312 C 111.839844 202.449219 112.585938 202.316406 113.328125 202.171875 C 113.34375 202.164062 113.355469 202.164062 113.371094 202.164062 C 113.726562 202.089844 114.078125 202.015625 114.429688 201.9375 C 114.46875 201.933594 114.496094 201.925781 114.519531 201.925781 C 114.984375 201.828125 115.441406 201.722656 115.902344 201.601562 C 116.164062 201.542969 116.425781 201.472656 116.6875 201.40625 C 116.996094 201.332031 117.304688 201.257812 117.601562 201.167969 C 118.007812 201.0625 118.398438 200.949219 118.796875 200.828125 C 119.53125 200.625 120.253906 200.402344 120.972656 200.160156 C 121.300781 200.054688 121.625 199.945312 121.949219 199.839844 C 122.339844 199.703125 122.726562 199.5625 123.117188 199.417969 C 123.246094 199.367188 123.375 199.320312 123.496094 199.277344 C 123.847656 199.148438 124.207031 199.003906 124.558594 198.863281 C 124.882812 198.734375 125.203125 198.609375 125.527344 198.472656 C 125.933594 198.308594 126.328125 198.144531 126.726562 197.960938 C 127.273438 197.722656 127.816406 197.476562 128.355469 197.226562 C 128.363281 197.21875 128.378906 197.210938 128.394531 197.203125 C 128.933594 196.949219 129.472656 196.6875 130.007812 196.417969 C 130.832031 195.996094 131.648438 195.5625 132.460938 195.105469 C 133.152344 194.714844 133.832031 194.316406 134.507812 193.902344 C 134.90625 193.664062 135.304688 193.417969 135.695312 193.160156 C 135.964844 192.988281 136.234375 192.816406 136.496094 192.644531 C 137.292969 192.117188 138.074219 191.578125 138.839844 191.015625 C 139.175781 190.773438 139.511719 190.519531 139.851562 190.273438 C 139.871094 190.257812 139.894531 190.242188 139.917969 190.21875 C 140.414062 189.84375 140.894531 189.46875 141.375 189.078125 C 141.855469 188.695312 142.335938 188.304688 142.800781 187.910156 C 143.210938 187.554688 143.617188 187.203125 144.023438 186.84375 C 144.398438 186.503906 144.773438 186.167969 145.140625 185.824219 C 145.859375 185.148438 146.574219 184.449219 147.265625 183.75 C 147.277344 183.730469 147.292969 183.714844 147.308594 183.699219 C 151.894531 178.988281 155.765625 173.585938 158.773438 167.671875 C 161.550781 162.195312 163.574219 156.261719 164.714844 150.023438 Z M 136.1875 150.023438 "/>
<g fill="rgb(24.705505%, 69.804382%, 30.979919%)" fill-opacity="1">
<use xlink:href="#glyph-0-0" x="399.53811" y="164.037986"/>
<use xlink:href="#glyph-0-1" x="463.718043" y="164.037986"/>
</g>
<path fill="none" stroke-width="2.737" stroke-linecap="butt" stroke-linejoin="miter" stroke="rgb(24.705505%, 69.804382%, 30.979919%)" stroke-opacity="1" stroke-miterlimit="10" d="M -0.0000834601 -0.00108004 L 14.001894 -0.00108004 L 14.001894 19.168388 L 24.638539 19.168388 C 38.910841 19.168388 50.366292 26.835391 50.366292 41.624833 L 50.366292 41.805049 C 50.366292 54.858935 41.187044 63.897145 26.001911 63.897145 L -0.0000834601 63.897145 Z M 14.001894 31.673791 L 14.001894 51.207608 L 24.818755 51.207608 C 31.819744 51.207608 36.184099 47.830522 36.184099 41.534725 L 36.184099 41.350592 C 36.184099 35.873601 32.093985 31.673791 25.092996 31.673791 Z M 14.001894 31.673791 " transform="matrix(0.997069, 0, 0, -0.997069, 407.152427, 164.037986)"/>
<path fill="none" stroke-width="2.737" stroke-linecap="butt" stroke-linejoin="miter" stroke="rgb(24.705505%, 69.804382%, 30.979919%)" stroke-opacity="1" stroke-miterlimit="10" d="M -0.00117122 -0.000119696 C 17.091898 -0.000119696 27.912676 9.492547 27.912676 28.846148 L 27.912676 64.901045 L 13.910699 64.901045 L 13.910699 28.297666 C 13.910699 18.166408 8.727538 12.963659 0.182962 12.963659 C -8.365531 12.963659 -13.548692 18.346624 -13.548692 28.752123 L -13.548692 64.901045 L -27.546752 64.901045 L -27.546752 28.387774 C -27.546752 9.582655 -17.09424 -0.000119696 -0.00117122 -0.000119696 Z M -0.00117122 -0.000119696 " transform="matrix(0.997069, 0, 0, -0.997069, 497.801949, 165.038943)"/>
<g clip-path="url(#clip-0)">
<path fill="none" stroke-width="10.19" stroke-linecap="butt" stroke-linejoin="miter" stroke="rgb(24.705505%, 69.804382%, 30.979919%)" stroke-opacity="1" stroke-miterlimit="10" d="M -0.001784 -0.001607 L 351.446291 -0.001607 C 352.417889 -0.001607 353.236695 0.723174 353.354227 1.686936 L 365.659827 101.420666 C 365.941903 103.712539 369.291565 103.649856 369.483534 101.346229 L 380.222040 -25.525637 C 380.402256 -27.637295 383.364062 -27.950714 383.979146 -25.921328 L 391.430674 -1.364978 C 391.677492 -0.554007 392.421861 -0.001607 393.272009 -0.001607 L 503.011630 -0.001607" transform="matrix(0.997069, 0, 0, -0.997069, 187.665841, 179.947617)"/>
</g>
<g fill="rgb(24.705505%, 69.804382%, 30.979919%)" fill-opacity="1">
<use xlink:href="#glyph-0-3" x="571.633857" y="164.037986"/>
<use xlink:href="#glyph-0-4" x="633.275600" y="164.037986"/>
</g>
<path fill="none" stroke-width="2.737" stroke-linecap="butt" stroke-linejoin="miter" stroke="rgb(24.705505%, 69.804382%, 30.979919%)" stroke-opacity="1" stroke-miterlimit="10" d="M 0.000402957 -0.00131184 C 13.728139 -0.00131184 23.365763 7.121127 23.365763 19.806746 L 23.365763 19.99088 C 23.365763 31.125077 16.090532 35.783261 3.181602 39.160347 C -7.819392 41.988951 -10.546134 43.360157 -10.546134 47.556049 L -10.546134 47.740183 C -10.546134 50.843027 -7.729284 53.307281 -2.365908 53.307281 C 3.001386 53.307281 8.544979 50.933135 14.182596 47.011484 L 21.457827 57.597199 C 15.001403 62.803866 7.0915 65.722577 -2.181774 65.722577 C -15.18473 65.722577 -24.458004 58.055574 -24.458004 46.463002 L -24.458004 46.278868 C -24.458004 33.593249 -16.183752 30.032029 -3.36493 26.745051 C 7.271715 24.006556 9.453893 22.180892 9.453893 18.619673 L 9.453893 18.439457 C 9.453893 14.694105 5.998452 12.413984 0.270727 12.413984 C -7.000586 12.413984 -13.002553 15.426721 -18.730279 20.171095 L -27.000613 10.223971 C -19.364951 3.375774 -9.63722 -0.00131184 0.000402957 -0.00131184 Z M 0.000402957 -0.00131184 " transform="matrix(0.997069, 0, 0, -0.997069, 601.819911, 164.947911)"/>
<path fill="none" stroke-width="2.737" stroke-linecap="butt" stroke-linejoin="miter" stroke="rgb(24.705505%, 69.804382%, 30.979919%)" stroke-opacity="1" stroke-miterlimit="10" d="M -0.0019492 -0.00108004 L 48.460408 -0.00108004 L 48.460408 12.504324 L 13.909921 12.504324 L 13.909921 25.922559 L 43.91192 25.922559 L 43.91192 38.431881 L 13.909921 38.431881 L 13.909921 51.391742 L 48.005951 51.391742 L 48.005951 63.897145 L -0.0019492 63.897145 Z M -0.0019492 -0.00108004 " transform="matrix(0.997069, 0, 0, -0.997069, 640.888662, 164.037986)"/>
<path fill-rule="nonzero" fill="#c9cfdb" fill-opacity="1" d="M 255.082031 95.710938 L 255.171875 167.628906 L 235.703125 167.648438 L 235.503906 139.546875 L 207.15625 139.335938 L 206.78125 167.675781 L 187.664062 167.605469 L 187.675781 95.789062 L 206.753906 95.664062 L 207.027344 122.859375 L 235.398438 123.136719 L 235.625 95.8125 Z M 255.082031 95.710938 "/>
<path fill-rule="nonzero" fill="#c9cfdb" fill-opacity="1" d="M 301.335938 127.148438 C 295.652344 128.800781 290.085938 128.414062 284.375 128.085938 L 284.300781 110.484375 L 297.375 110.636719 C 301.972656 110.679688 305.679688 112.957031 306.4375 117.019531 C 307.210938 121.09375 306.003906 125.796875 301.335938 127.148438 M 303.847656 95.921875 L 264.871094 95.59375 L 264.871094 167.644531 L 284.179688 167.675781 L 284.359375 143.277344 L 302.925781 142.949219 C 316.347656 142.710938 325.851562 132.59375 324.988281 119.339844 C 326.015625 106.542969 316.820312 96.023438 303.847656 95.921875 "/>
<path fill-rule="nonzero" fill="#c9cfdb" fill-opacity="1" d="M 366.691406 153.214844 L 349.167969 153.453125 L 349.167969 138.1875 L 365.679688 138.261719 C 370.171875 138.292969 373.265625 141.015625 373.550781 145.046875 C 373.816406 149.078125 371.675781 153.15625 366.691406 153.214844 M 349.152344 110.023438 L 365.054688 110.128906 C 369.160156 110.144531 371.378906 113.371094 371.363281 116.792969 C 371.363281 120.261719 369.292969 123.683594 365.203125 123.710938 L 349 123.847656 Z M 391.609375 143.648438 C 389.320312 130.125 378.296875 132.238281 382.9375 128.667969 C 390.734375 122.640625 392.28125 110.875 386.136719 103.0625 C 381.835938 98.375 375.960938 95.875 369.503906 95.847656 L 330.539062 95.667969 L 330.507812 167.632812 L 369.757812 167.570312 C 375.75 167.558594 381.226562 164.921875 385.929688 161.605469 C 390.496094 156.785156 392.726562 150.195312 391.609375 143.648438 "/>
</svg>
